<svg xmlns="http://www.w3.org/2000/svg" style="position:absolute;width:0;height:0;overflow:hidden" aria-hidden="true">
<defs>

<symbol id="icon-menu" viewBox="0 0 24 24" fill="none" stroke="currentColor" stroke-width="1.75" stroke-linecap="round">
  <line x1="3" y1="6" x2="21" y2="6"/><line x1="3" y1="12" x2="21" y2="12"/><line x1="3" y1="18" x2="21" y2="18"/>
</symbol>

<symbol id="icon-close" viewBox="0 0 24 24" fill="none" stroke="currentColor" stroke-width="1.75" stroke-linecap="round">
  <line x1="5" y1="5" x2="19" y2="19"/><line x1="19" y1="5" x2="5" y2="19"/>
</symbol>

<symbol id="icon-sun" viewBox="0 0 24 24" fill="none" stroke="currentColor" stroke-width="1.75" stroke-linecap="round">
  <circle cx="12" cy="12" r="4.5"/>
  <line x1="12" y1="1.5" x2="12" y2="4"/><line x1="12" y1="20" x2="12" y2="22.5"/>
  <line x1="1.5" y1="12" x2="4" y2="12"/><line x1="20" y1="12" x2="22.5" y2="12"/>
  <line x1="4.5" y1="4.5" x2="6.2" y2="6.2"/><line x1="17.8" y1="17.8" x2="19.5" y2="19.5"/>
  <line x1="19.5" y1="4.5" x2="17.8" y2="6.2"/><line x1="6.2" y1="17.8" x2="4.5" y2="19.5"/>
</symbol>

<symbol id="icon-moon" viewBox="0 0 24 24" fill="none" stroke="currentColor" stroke-width="1.75" stroke-linecap="round" stroke-linejoin="round">
  <path d="M20 14.5A8.5 8.5 0 1 1 9.5 4 6.8 6.8 0 0 0 20 14.5Z"/>
</symbol>

<symbol id="icon-chevron-down" viewBox="0 0 24 24" fill="none" stroke="currentColor" stroke-width="1.75" stroke-linecap="round" stroke-linejoin="round">
  <polyline points="5 8 12 15 19 8"/>
</symbol>

<symbol id="icon-arrow-right" viewBox="0 0 24 24" fill="none" stroke="currentColor" stroke-width="1.75" stroke-linecap="round" stroke-linejoin="round">
  <line x1="4" y1="12" x2="19" y2="12"/><polyline points="13 6 19 12 13 18"/>
</symbol>

<symbol id="icon-check" viewBox="0 0 24 24" fill="none" stroke="currentColor" stroke-width="2" stroke-linecap="round" stroke-linejoin="round">
  <polyline points="4 12.5 9.5 18 20 6"/>
</symbol>

<symbol id="icon-check-circle" viewBox="0 0 24 24" fill="none" stroke="currentColor" stroke-width="1.75" stroke-linecap="round" stroke-linejoin="round">
  <circle cx="12" cy="12" r="9.25"/><polyline points="7.5 12.5 10.5 15.5 16.5 9"/>
</symbol>

<symbol id="icon-whatsapp" viewBox="0 0 24 24" fill="currentColor">
  <path d="M12.02 2C6.5 2 2 6.48 2 12c0 1.86.51 3.6 1.4 5.09L2 22l5.06-1.33A9.94 9.94 0 0 0 12.02 22C17.53 22 22 17.52 22 12S17.53 2 12.02 2Zm0 18.1c-1.62 0-3.14-.44-4.44-1.22l-.32-.19-3 .79.8-2.93-.21-.3A8.06 8.06 0 0 1 3.9 12c0-4.48 3.65-8.1 8.12-8.1 4.47 0 8.1 3.62 8.1 8.1 0 4.48-3.63 8.1-8.1 8.1Zm4.45-6.06c-.24-.12-1.44-.71-1.66-.79-.22-.08-.39-.12-.55.12-.16.24-.63.79-.78.95-.14.16-.29.18-.53.06-.24-.12-1.03-.38-1.96-1.21-.72-.64-1.21-1.44-1.35-1.68-.14-.24-.02-.37.11-.49.11-.11.24-.29.36-.43.12-.14.16-.24.24-.4.08-.16.04-.31-.02-.43-.06-.12-.55-1.33-.76-1.82-.2-.48-.4-.41-.55-.42h-.47c-.16 0-.43.06-.65.31-.22.24-.86.84-.86 2.05 0 1.21.88 2.38 1 2.54.12.16 1.74 2.66 4.22 3.72.59.25 1.05.4 1.41.52.59.19 1.13.16 1.56.1.48-.07 1.44-.59 1.64-1.16.2-.57.2-1.06.14-1.16-.06-.11-.22-.17-.46-.29Z"/>
</symbol>

<symbol id="icon-instagram" viewBox="0 0 24 24" fill="none" stroke="currentColor" stroke-width="1.75">
  <rect x="3" y="3" width="18" height="18" rx="5"/>
  <circle cx="12" cy="12" r="4.2"/>
  <circle cx="17.2" cy="6.8" r="1" fill="currentColor" stroke="none"/>
</symbol>

<symbol id="icon-facebook" viewBox="0 0 24 24" fill="currentColor">
  <path d="M14.5 8.5H16.5V5.2C16.16 5.15 15 5.05 13.65 5.05C10.83 5.05 8.9 6.78 8.9 9.94V12.5H6V16.15H8.9V22H12.6V16.15H15.38L15.85 12.5H12.6V10.31C12.6 9.28 12.88 8.5 14.5 8.5Z"/>
</symbol>

<symbol id="icon-megaphone" viewBox="0 0 24 24" fill="none" stroke="currentColor" stroke-width="1.6" stroke-linecap="round" stroke-linejoin="round">
  <path d="M3 11v2a1.5 1.5 0 0 0 1.5 1.5H6l1 5h2l-.6-5H10l8 4V6l-8 4H4.5A1.5 1.5 0 0 0 3 11Z"/>
  <path d="M18 9.5a3 3 0 0 1 0 5"/>
</symbol>

<symbol id="icon-code" viewBox="0 0 24 24" fill="none" stroke="currentColor" stroke-width="1.6" stroke-linecap="round" stroke-linejoin="round">
  <polyline points="9 8 4.5 12 9 16"/><polyline points="15 8 19.5 12 15 16"/><line x1="13.5" y1="6" x2="10.5" y2="18"/>
</symbol>

<symbol id="icon-devices" viewBox="0 0 24 24" fill="none" stroke="currentColor" stroke-width="1.6" stroke-linecap="round" stroke-linejoin="round">
  <rect x="2.5" y="4.5" width="13" height="9.5" rx="1.2"/>
  <line x1="6" y1="17.5" x2="12" y2="17.5"/>
  <rect x="15.5" y="9" width="6" height="10.5" rx="1.2"/>
</symbol>

<symbol id="icon-calculator" viewBox="0 0 24 24" fill="none" stroke="currentColor" stroke-width="1.6" stroke-linecap="round" stroke-linejoin="round">
  <rect x="4.5" y="2.5" width="15" height="19" rx="2"/>
  <line x1="7.5" y1="6" x2="16.5" y2="6"/>
  <line x1="7.5" y1="11" x2="7.5" y2="11.01"/><line x1="12" y1="11" x2="12" y2="11.01"/><line x1="16.5" y1="11" x2="16.5" y2="11.01"/>
  <line x1="7.5" y1="14.7" x2="7.5" y2="14.71"/><line x1="12" y1="14.7" x2="12" y2="14.71"/><line x1="16.5" y1="14.7" x2="16.5" y2="14.71"/>
  <line x1="7.5" y1="18.4" x2="7.5" y2="18.41"/><line x1="12" y1="18.4" x2="12" y2="18.41"/><line x1="16.5" y1="18.4" x2="16.5" y2="18.41"/>
</symbol>

<symbol id="icon-chart-bar" viewBox="0 0 24 24" fill="none" stroke="currentColor" stroke-width="1.6" stroke-linecap="round" stroke-linejoin="round">
  <line x1="4" y1="20" x2="20" y2="20"/>
  <rect x="6" y="13" width="3" height="7"/><rect x="10.5" y="9" width="3" height="11"/><rect x="15" y="5" width="3" height="15"/>
</symbol>

<symbol id="icon-users" viewBox="0 0 24 24" fill="none" stroke="currentColor" stroke-width="1.6" stroke-linecap="round" stroke-linejoin="round">
  <circle cx="8.5" cy="8" r="3"/><path d="M2.8 19c.6-3 3-5 5.7-5s5.1 2 5.7 5"/>
  <circle cx="16.5" cy="8.5" r="2.4"/><path d="M15.2 14.2c2 .2 3.9 1.9 4.4 4.3"/>
</symbol>

<symbol id="icon-target" viewBox="0 0 24 24" fill="none" stroke="currentColor" stroke-width="1.6" stroke-linecap="round" stroke-linejoin="round">
  <circle cx="12" cy="12" r="9"/><circle cx="12" cy="12" r="5"/><circle cx="12" cy="12" r="1" fill="currentColor" stroke="none"/>
</symbol>

<symbol id="icon-rocket" viewBox="0 0 24 24" fill="none" stroke="currentColor" stroke-width="1.6" stroke-linecap="round" stroke-linejoin="round">
  <path d="M12 2.5c3 1.3 5 4.4 5 8.4 0 2-1 4.7-2.3 6.1l-2.7 2.5-2.7-2.5C8 15.6 7 12.9 7 10.9c0-4 2-7.1 5-8.4Z"/>
  <circle cx="12" cy="10" r="1.8"/>
  <path d="M8.3 16.7 6 19.5l.6-3.6M15.7 16.7 18 19.5l-.6-3.6"/>
</symbol>

<symbol id="icon-shield-check" viewBox="0 0 24 24" fill="none" stroke="currentColor" stroke-width="1.6" stroke-linecap="round" stroke-linejoin="round">
  <path d="M12 2.8 19 5.5v6c0 4.6-2.9 8.2-7 9.7-4.1-1.5-7-5.1-7-9.7v-6Z"/>
  <polyline points="8.7 12.2 11 14.5 15.5 9.8"/>
</symbol>

<symbol id="icon-clock" viewBox="0 0 24 24" fill="none" stroke="currentColor" stroke-width="1.6" stroke-linecap="round" stroke-linejoin="round">
  <circle cx="12" cy="12" r="9"/><polyline points="12 7 12 12 16 14.5"/>
</symbol>

<symbol id="icon-map-pin" viewBox="0 0 24 24" fill="none" stroke="currentColor" stroke-width="1.6" stroke-linecap="round" stroke-linejoin="round">
  <path d="M12 21.5s7-6.4 7-11.8A7 7 0 0 0 5 9.7c0 5.4 7 11.8 7 11.8Z"/><circle cx="12" cy="9.7" r="2.4"/>
</symbol>

<symbol id="icon-mail" viewBox="0 0 24 24" fill="none" stroke="currentColor" stroke-width="1.6" stroke-linecap="round" stroke-linejoin="round">
  <rect x="2.8" y="5" width="18.4" height="14" rx="2"/><polyline points="3.5 6 12 12.5 20.5 6"/>
</symbol>

<symbol id="icon-star" viewBox="0 0 24 24" fill="currentColor">
  <path d="M12 2.8 14.6 9l6.6.5-5 4.4 1.5 6.4L12 16.9 6.3 20.3l1.5-6.4-5-4.4L9.4 9Z"/>
</symbol>

<symbol id="icon-quote" viewBox="0 0 24 24" fill="currentColor">
  <path d="M4 8.4C4 6 5.9 4 8.4 4v2.3c-1.2 0-2.1 1-2.1 2.1v.4h2.1V15H4V8.4Zm9.6 0c0-2.4 1.9-4.4 4.4-4.4v2.3c-1.2 0-2.1 1-2.1 2.1v.4h2.1V15h-4.4V8.4Z"/>
</symbol>

<symbol id="icon-layers" viewBox="0 0 24 24" fill="none" stroke="currentColor" stroke-width="1.6" stroke-linecap="round" stroke-linejoin="round">
  <polygon points="12 3 21 8 12 13 3 8"/><polyline points="3 13 12 18 21 13"/><polyline points="3 17.5 12 22.5 21 17.5"/>
</symbol>

<symbol id="icon-briefcase" viewBox="0 0 24 24" fill="none" stroke="currentColor" stroke-width="1.6" stroke-linecap="round" stroke-linejoin="round">
  <rect x="2.8" y="7.5" width="18.4" height="12" rx="2"/><path d="M8.5 7.5V5.8A1.8 1.8 0 0 1 10.3 4h3.4a1.8 1.8 0 0 1 1.8 1.8V7.5"/><line x1="2.8" y1="12.5" x2="21.2" y2="12.5"/>
</symbol>

<symbol id="icon-gauge" viewBox="0 0 24 24" fill="none" stroke="currentColor" stroke-width="1.6" stroke-linecap="round" stroke-linejoin="round">
  <path d="M3.5 15.5a8.5 8.5 0 1 1 17 0"/><line x1="12" y1="15.5" x2="15.5" y2="10.5"/><line x1="3.5" y1="15.5" x2="5" y2="15.5"/><line x1="19" y1="15.5" x2="20.5" y2="15.5"/>
</symbol>

<symbol id="icon-database" viewBox="0 0 24 24" fill="none" stroke="currentColor" stroke-width="1.6" stroke-linecap="round" stroke-linejoin="round">
  <ellipse cx="12" cy="5.5" rx="7.5" ry="2.8"/>
  <path d="M4.5 5.5V18c0 1.5 3.4 2.8 7.5 2.8s7.5-1.3 7.5-2.8V5.5"/>
  <path d="M4.5 11.8c0 1.5 3.4 2.8 7.5 2.8s7.5-1.3 7.5-2.8"/>
</symbol>

<symbol id="icon-file-check" viewBox="0 0 24 24" fill="none" stroke="currentColor" stroke-width="1.6" stroke-linecap="round" stroke-linejoin="round">
  <path d="M6.5 2.8h7l4 4v13.4a1 1 0 0 1-1 1h-10a1 1 0 0 1-1-1V3.8a1 1 0 0 1 1-1Z"/>
  <polyline points="13.5 2.8 13.5 6.8 17.5 6.8"/>
  <polyline points="8.8 14 10.8 16 15.2 11.3"/>
</symbol>

<symbol id="icon-coins" viewBox="0 0 24 24" fill="none" stroke="currentColor" stroke-width="1.6" stroke-linecap="round" stroke-linejoin="round">
  <ellipse cx="9" cy="7" rx="6" ry="3.2"/>
  <path d="M3 7v4.5c0 1.8 2.7 3.2 6 3.2s6-1.4 6-3.2V7"/>
  <path d="M3 11.5V16c0 1.8 2.7 3.2 6 3.2 1 0 1.9-.1 2.8-.4"/>
  <path d="M13.5 12.3c.7-.3 1.6-.4 2.5-.4 3.3 0 6 1.4 6 3.2s-2.7 3.2-6 3.2-6-1.4-6-3.2"/>
</symbol>

<symbol id="icon-globe" viewBox="0 0 24 24" fill="none" stroke="currentColor" stroke-width="1.6" stroke-linecap="round" stroke-linejoin="round">
  <circle cx="12" cy="12" r="9"/><line x1="3" y1="12" x2="21" y2="12"/>
  <path d="M12 3c2.5 2.4 4 5.6 4 9s-1.5 6.6-4 9c-2.5-2.4-4-5.6-4-9s1.5-6.6 4-9Z"/>
</symbol>

<symbol id="icon-drone" viewBox="0 0 24 24" fill="none" stroke="currentColor" stroke-width="1.6" stroke-linecap="round" stroke-linejoin="round">
  <rect x="9.5" y="9.5" width="5" height="5" rx="1"/>
  <line x1="9.5" y1="9.5" x2="4.5" y2="4.5"/><line x1="14.5" y1="9.5" x2="19.5" y2="4.5"/>
  <line x1="9.5" y1="14.5" x2="4.5" y2="19.5"/><line x1="14.5" y1="14.5" x2="19.5" y2="19.5"/>
  <circle cx="4.5" cy="4.5" r="2"/><circle cx="19.5" cy="4.5" r="2"/><circle cx="4.5" cy="19.5" r="2"/><circle cx="19.5" cy="19.5" r="2"/>
</symbol>

<symbol id="icon-heart-pulse" viewBox="0 0 24 24" fill="none" stroke="currentColor" stroke-width="1.6" stroke-linecap="round" stroke-linejoin="round">
  <path d="M12 20.2s-7.4-4.6-9.7-9.3C.9 7.3 2.6 4 6 4c2 0 3.4 1.1 4.2 2.3.4.6 1.2.6 1.6 0C12.6 5.1 14 4 16 4c3.4 0 5.1 3.3 3.7 6.9-.4 1-1 2-1.7 2.9h-3.2l-1.4-2.4-2 3.6-1.2-1.9H6.6"/>
</symbol>

</defs>
</svg>
